<?xml version="1.0" encoding="UTF-8"?>
<svg xmlns="http://www.w3.org/2000/svg" version="1.1" viewBox="0 0 50 50">
  <defs>
    <style>
      .cls-1 {
        fill: #fff;
      }

      .cls-2 {
        fill: red;
      }
    </style>
  </defs>
  <!-- Generator: Adobe Illustrator 28.7.2, SVG Export Plug-In . SVG Version: 1.2.0 Build 154)  -->
  <g>
    <g id="Layer_1">
      <path class="cls-2" d="M43,5.58l.8.07-.05,1.25v.03s0,.03,0,.03l-.11,5.05v.14s0,.14,0,.14l.24,4.86-.23,4.86v.27s.01.27.01.27l.44,5,.29,4.83-.12,4.89v.06s0,.06,0,.06l.02,4.86-.15,1.5-1.37.16-4.59-.26-4.94-.56-.25-.03h-.25s-5.05.06-5.05.06h-.17s-.17.02-.17.02l-4.85.47-4.67-.04-4.89-.46-.41-.04-.41.04-4.9.54-.89.03.05-.98.42-4.99.04-.44-.06-.44-.64-4.64.33-4.64v-.07s0-.07,0-.07l.18-5.06v-.16s0-.16,0-.16l-.22-4.86.24-4.87v-.07s0-.07,0-.07l.07-5.06v-.19s-.01-.19-.01-.19l-.08-.99.85-.03,4.93.15h.05s.05,0,.05,0l5.02.02,4.94.11,4.98.31h.17s.17,0,.17,0l4.98-.11,4.98.08h.32s.32-.04.32-.04l4.6-.66M42.89,1.55l-5.06.73-5.06-.08-5.05.11-5.06-.31-5.05-.11-5.05-.02-5.05-.15-5.18.16.43,5.19-.07,5.06-.25,5.06.22,5.05-.18,5.06-.35,5.05.7,5.05-.42,5.05-.27,5.37,5.38-.15,5.06-.56,5.06.47,5.05.04,5.06-.49,5.05-.06,5.05.57,5.05.28,4.9-.58.49-4.9-.02-5.07.12-5.06-.3-5.05-.45-5.06.24-5.05-.25-5.05.11-5.05.2-5.04-5.05-.46h0Z"/>
      <polygon class="cls-2" points="40.87 26.99 41.23 22.49 41.17 18 41.09 13.5 40.91 9.04 36.45 9.08 31.95 9.1 27.44 8.79 22.95 8.85 18.45 8.79 13.95 8.93 9.34 8.88 9.64 13.5 9.3 18.01 9.65 22.51 9.68 27.01 9.17 31.5 9.58 36 9.42 40.53 13.96 40.54 18.46 40.64 22.96 40.75 27.46 40.32 31.96 40.23 36.46 40.69 40.77 40.32 41.03 36 40.86 31.49 40.87 26.99"/>
      <g>
        <g>
          <polygon class="cls-1" points="15.69 17.51 15.62 17.61 16.12 18.36 16.18 18.88 16.07 19.13 16.22 19.38 16.8 20 17.53 20.33 18.52 19.88 18.94 19.14 18.42 18.79 17.6 19.03 17.16 19.25 16.9 19.16 16.82 18.54 16.75 18.01 16.91 17.5 16.74 16.86 16.07 16.27 15.28 16.13 15.06 16.53 15.49 17.14 15.69 17.51"/>
          <path class="cls-1" d="M17.53,20.74l-1.01-.49-.58-.63-.3-.46.15-.34-.04-.34-.6-.9.09-.12-.08-.15-.55-.77.47-.83,1.16.21.84.74.22.86-.17.53.1.75.19-.1,1.05-.32.96.64-.65,1.15-1.26.58ZM17.02,19.69l.51.23.73-.33.19-.33-.09-.06-.65.19-.52.27-.29-.1.13.14ZM16.49,19.1l.03.05v-.1s-.03.05-.03.05ZM16.07,17.62l.3.46v-.09s.14-.49.14-.49l-.11-.43-.51-.45-.37-.07.26.37.33.61-.06.08Z"/>
        </g>
        <g>
          <polygon class="cls-1" points="19.1 17.97 19.43 18.01 19.61 17.77 20.08 17.71 20.01 19.21 20.2 20.16 20.31 20.7 20.21 21.12 20.2 21.16 20.21 21.59 20.58 21.05 20.93 20.08 20.99 18.27 21.15 15.47 21.16 15.16 21.01 14.89 20.93 14.63 20.26 14.16 19.63 14 19.25 14.15 19.28 14.42 19.89 14.94 19.97 15.59 19.94 16.79 19.42 17.07 18.8 17.18 18.19 17.16 18.49 17.57 19.1 17.97"/>
          <path class="cls-1" d="M19.87,22.75l-.05-1.62.1-.43-.28-1.42.04-.97-.08.11-.71-.13-.7-.48-.78-1.04,1.4.05.47-.1.28-.15.03-.98-.06-.45-.62-.52-.07-.71.76-.29.87.25.77.55.12.38.17.29-.26,5.13-.4,1.06-1.01,1.48ZM20.48,17.28l-.1,1.95.17.8v-.02s.06-1.75.06-1.75l.17-3.01-.17-.38-.51-.36-.2-.05.34.29.1.8-.04,1.48-.7.37.87-.11ZM19.23,17.61h.03s.11-.15.11-.15l-.28.05.14.09Z"/>
        </g>
        <g>
          <polygon class="cls-1" points="21.81 13.9 22.12 14.58 22.11 19.77 22.05 21.12 22.29 22 22.43 22.53 22.35 23.07 22.34 23.66 22.67 23.09 23.08 21.74 23.19 18.64 23.1 14.49 23.26 14.28 23.27 13.91 22.9 13.65 22.9 13.55 22.39 13.2 21.71 13.01 21.05 13.09 21.16 13.39 21.81 13.9"/>
          <path class="cls-1" d="M21.96,25.1v-2.03s.09-.51.09-.51l-.38-1.39.06-1.41.02-5.09-.24-.52-.67-.52-.31-.85,1.2-.14.87.25.66.46v.1s.38.26.38.26v.69s-.16.2-.16.2l.08,4.03-.12,3.22-.42,1.35-1.07,1.9ZM22.43,21.08l.22.81.06-.21.1-3.05-.09-4.27.16-.26-.36-.25v-.11s-.3-.21-.3-.21l-.41-.11.33.31.35.75-.07,6.58Z"/>
        </g>
        <g>
          <polygon class="cls-1" points="33.67 23.07 34.05 22.94 34.02 22.58 33.65 22.4 33.85 22.12 34.01 21.78 34.1 20.96 34.06 20.79 34.18 20.67 34.15 20.29 33.61 19.63 33.17 19.52 32.84 19.66 32.68 19.62 32.07 19.8 31.39 19.96 30.86 20.22 31.17 20.53 31.25 20.57 31.54 20.83 31.82 20.83 32.15 20.77 32.48 20.63 32.91 20.52 33.05 21.07 32.98 21.76 33.13 22.29 31.99 22.54 31.21 22.5 30.95 21.22 30.99 21.05 30.99 20.91 30.99 20.59 30.64 20.19 29.8 19.97 29.39 20.07 29.24 20.34 29.6 20.6 29.74 20.8 29.78 21.1 30.03 21.52 30.11 21.97 30.11 22.55 30.35 23.09 30.73 23.53 31.12 23.11 31.27 23.15 31.42 23.15 31.76 23.31 32.91 23.2 33.67 23.07"/>
          <path class="cls-1" d="M30.73,24.1l-.72-.85-.27-.69v-.59s-.06-.31-.06-.31l-.26-.51-.08-.28-.57-.41.37-.72.67-.16.97.26.46-.22,1.44-.39.14.03.33-.13.68.17.69.85.05.68-.09.09v.03s-.12,1.01-.12,1.01l-.15.31.17.09.08.85-.73.25-.75.12-1.28.12-.35-.16h-.1s-.51.57-.51.57ZM30.67,22.89l.07.08.15-.17-.33-1.58.06-.21v-.27s-.19-.21-.19-.21l-.53-.14.21.36.03.22.26.48.08.45v.57s.19.42.19.42ZM31.79,22.91l.04.02h.11s-.14-.02-.14-.02ZM33.29,22.64l-1.17.26,1.34-.17-.18-.09ZM31.52,22.14l.44.02.7-.16-.06-.21.07-.7-.03-.12-.07.02-.27.12-.42.08h-.34s-.19-.04-.19-.04l-.02.08.19.91ZM33.36,21.73l.09.31.2-.36.08-.69-.08-.31.15-.15v-.1s-.39-.47-.39-.47l-.2-.05-.33.13-.18-.04-1.17.31.16.14h.13s.27-.05.27-.05l.24-.12.86-.23.24.98-.07.69Z"/>
        </g>
        <g>
          <polygon class="cls-1" points="36.03 17.03 35.43 16.77 34.97 16.87 34.65 16.92 34.46 17.03 34.1 17.1 34.25 14.52 34.28 14.26 34.12 13.97 33.91 13.64 32.97 13.04 32.31 12.97 31.96 13.15 32.2 13.53 32.74 13.96 32.94 14.63 32.92 16.89 32.92 16.91 31.54 17.22 29.93 17.32 28.62 17.7 28.42 16.84 28.59 16.34 28.49 16.08 28.53 15.81 28.21 15.04 27.29 14.76 26.76 14.8 26.42 14.88 26.34 15.13 26.53 15.32 27.27 16.19 27.82 17.28 27.88 17.52 27.69 17.64 27.67 17.96 28.07 18.35 28.47 18.8 28.91 18.68 29.11 18.5 29.39 18.31 29.8 18.28 31.49 17.84 33.1 17.78 33.24 18.02 33.4 18.49 33.24 18.87 33.25 19.2 33.5 18.88 33.99 18.28 34.13 17.7 34.81 17.73 35.28 17.92 35.85 17.88 36.05 17.56 36.03 17.03"/>
          <path class="cls-1" d="M32.92,20.24l-.06-1.44.14-.32-.11-.31-1.38.06-1.62.42-.36.03-.52.37-.66.17-1.07-1.12.06-.67.11-.08-.51-1-1.04-1.13.24-.66.53-.13.66-.06,1.15.36.43,1.02-.04.28.11.3-.18.52.09.37.93-.27,1.69-.12,1.03-.23.02-1.93-.15-.5-.53-.45-.46-.73.82-.41.93.14,1.06.71.44.74-.04.38-.12,2.01.09-.02.87-.16.92.4.05.88-.38.57-.84.07-.49-.2-.3-.02-.14.43-1.36,1.72ZM28.4,18.15l.2.23.13-.03.13-.12.4-.28.5-.04,1.02-.27-.84.06-1.55.46ZM33.31,17.39l.34.69.13-.54h-.08s.19-3.2.19-3.2l-.26-.43-.8-.5-.22-.02.44.35.25.84-.02,2.32.03.33-1.06.22,1.05-.05ZM28.08,17.83l.24.24-.08-.35-.16.11ZM34.67,17.35l.28.04.38.16.3-.02.04-.06v-.17s-.29-.12-.29-.12l-.6.11-.12.07ZM26.89,15.17l.67.78.49.96-.02-.09.16-.47-.09-.23.04-.26-.21-.51-.68-.21-.36.03Z"/>
        </g>
        <g>
          <polygon class="cls-1" points="23.74 33.69 23.12 33.69 22.73 33.78 22.37 34.01 21.74 34.03 21.77 34.03 21.82 33.56 21.75 33.18 21.72 32.66 21.02 32.04 20.2 32.06 20.28 32.54 20.7 33.45 20.93 34.18 18.37 34.26 16.05 34.09 15.39 34.33 16.31 35.08 17.03 35.45 17.48 35.35 17.68 35.2 18.04 35.18 20.27 34.84 22.8 34.72 23.3 34.88 23.72 34.96 24.32 34.86 24.69 34.54 24.59 34.06 23.74 33.69"/>
          <path class="cls-1" d="M16.98,35.85l-.84-.43-1.5-1.22,1.35-.48,2.4.17,2.03-.07-.08-.26-.44-.96-.14-.91,1.4-.03.92.82.12,1.07v.1s.05,0,.05,0l.39-.23.4-.09h.7s.15.03.15.03l1.03.45.19.89-.62.54-.77.12-.49-.09-.48-.15-2.47.11-2.47.36-.26.15-.58.13ZM16.16,34.48l.39.32.53.26.24-.05.23-.17.47-.03,1.29-.2-.92.03-2.21-.16ZM22.86,34.34l.87.24.43-.07.12-.11-.02-.07-.61-.26h-.54s-.23.06-.23.06l-.35.23h.32ZM20.64,32.43l.4.86.36,1.12.35-.02-.02-.37-.33-.04.05-.42-.09-.74-.47-.42h-.24s0,.02,0,.02Z"/>
        </g>
        <g>
          <polygon class="cls-1" points="19.55 30.27 18.57 31.05 17.78 31.49 16.92 31.62 17.59 31.68 19.51 31.3 21.07 30.2 21.83 30.54 22.52 31.32 23.21 31.37 23.45 30.6 22.97 30.08 22.33 29.95 21.91 29.9 21.42 29.87 21.48 29.71 21.79 29.57 21.7 29.35 21.53 29.11 21.13 28.66 21.25 28.57 21.88 28.54 22.54 28.67 22.88 28.54 23.09 28.33 23.18 28.04 22.85 27.64 22.21 27.5 21.8 27.58 21.47 27.78 20.98 28.05 19.51 28.11 18.21 28.06 17.92 28.22 17.71 28.3 17.78 28.61 18.39 28.95 19.12 29.11 19.53 29.06 19.85 28.84 20.47 28.78 20.5 28.83 20.27 29.4 19.55 30.27"/>
          <path class="cls-1" d="M17.61,32.06l-3.79-.35,3.85-.58.72-.41.9-.72.61-.74-.33.17-.47.05-.89-.21-.76-.42-.18-.79.85-.39,1.41.05,1.35-.05.85-.46.5-.1.84.19.54.64-.24.64-.35.3-.43.16-.72-.14.15.22.18.42.2.02.78.16.71.77-.39,1.26-1.15-.08-.74-.84-.49-.22-1.53,1.04-1.98.39ZM22.7,30.96l.25.02.09-.28-.25-.27-.65-.12.58.66ZM20.85,28.92v.05s-.3.67-.3.67l-.78.93-.5.4.08-.02,1.67-1.18h.03s.12-.34.12-.34l.09-.04-.05-.06-.37-.4ZM18.53,28.6l.61.13.25-.03.44-.23h-.31s-1.22-.03-1.22-.03l-.03.02.26.14ZM20.73,28.44l.02.04.06-.05h-.08ZM21.86,28.17l.65.11.16-.06.09-.1-.12-.14-.43-.1-.27.06-.42.25h.35Z"/>
        </g>
        <g>
          <polygon class="cls-1" points="34.25 27.23 33.99 26.9 33.12 26.3 32.41 26.2 32.02 26.38 31.91 26.59 32.61 27.25 32.94 27.88 33.09 32.5 33.09 34.31 33.3 35.34 33.41 35.81 33.35 36.22 33.23 36.82 33.5 36.28 33.52 36.23 34.05 34.96 34.2 32.38 34.2 27.86 34.32 27.56 34.25 27.23"/>
          <path class="cls-1" d="M32.28,39.47l.75-3.64-.31-1.45v-1.88s-.16-4.52-.16-4.52l-.25-.49-.87-.81.3-.58.6-.28.99.18.95.68.34.49.08.44-.13.33v4.45s-.18,2.72-.18,2.72l-.83,1.89-1.28,2.48ZM32.45,26.59l.5.49.37.79.16,4.62v1.82s.14.72.14.72l.06-.15.15-2.52v-4.57s.1-.26.1-.26l-.03-.13-.17-.21-.75-.52-.52-.07h-.01Z"/>
        </g>
        <g>
          <path class="cls-1" d="M29.1,28.56l-1.68.41-.5,1.49.61,1.55,1.68.72,1.43-.57.49-1.49-.58-1.56-1.45-.54ZM30.04,31.29l-.89.25-.97-.25-.53-.71.5-.8,1-.4.81.52.46.69-.38.71Z"/>
          <path class="cls-1" d="M29.2,33.12l-1.96-.84-.72-1.82.61-1.81,2-.49,1.72.64.68,1.84-.59,1.78-1.73.69ZM27.82,31.72l1.39.59,1.12-.45.27-.83-.3.57-1.14.32-1.2-.31-.38-.51.24.6ZM28.4,30.97l.74.19.64-.18.19-.37-.29-.44-.58-.37-.7.28-.3.48.3.4ZM27.71,29.29l-.37,1.1.57-.91,1.24-.5-.07-.03-1.37.33ZM29.33,29.05l.94.64.21.32-.23-.61-.93-.35Z"/>
        </g>
      </g>
    </g>
  </g>
</svg>